<svg width="40" height="40" viewBox="0 0 40 40" fill="none" xmlns="http://www.w3.org/2000/svg">
<path fill-rule="evenodd" clip-rule="evenodd" d="M8 0C3.58172 0 0 3.58172 0 8V32C0 36.4183 3.58172 40 8 40H32C36.4183 40 40 36.4183 40 32V8C40 3.58172 36.4183 0 32 0H8ZM22.0812 20.9043C22.0812 21.9716 22.9111 22.8448 23.9666 22.9139L23.9659 22.9132H23.9714C25.0207 22.8532 25.8526 21.9835 25.8526 20.9196C25.8526 20.8796 25.8513 20.8395 25.8493 20.8052C25.852 20.7635 25.8533 20.7217 25.8533 20.6793C25.8533 19.6162 25.0207 18.7479 23.9666 18.6906H23.961C22.9118 18.7542 22.0805 19.6245 22.0805 20.6898C22.0805 20.7287 22.0818 20.7669 22.0839 20.7999C22.0819 20.8347 22.0812 20.8695 22.0812 20.9043ZM22.0839 20.7999C22.0839 20.8007 22.084 20.8015 22.084 20.8023V20.7974C22.084 20.7982 22.0839 20.7991 22.0839 20.7999ZM25.8493 20.8052C25.8492 20.8042 25.8492 20.8032 25.8491 20.8023V20.8079C25.8492 20.807 25.8492 20.8061 25.8493 20.8052ZM15.1196 20.9043C15.1196 21.9716 15.9494 22.8448 17.0049 22.9139H17.0105C18.0597 22.8504 18.891 21.98 18.891 20.9147C18.891 20.876 18.8897 20.838 18.8877 20.8051C18.8903 20.7634 18.8917 20.7217 18.8917 20.6793C18.8917 19.6162 18.059 18.7479 17.0049 18.6906H16.9993C15.9501 18.7542 15.1189 19.6245 15.1189 20.6898C15.1189 20.7287 15.1202 20.7669 15.1222 20.7999C15.1202 20.8347 15.1196 20.8695 15.1196 20.9043ZM15.1222 20.7999C15.1223 20.8007 15.1223 20.8015 15.1224 20.8023V20.7974C15.1223 20.7982 15.1223 20.7991 15.1222 20.7999ZM18.8877 20.8051C18.8876 20.8042 18.8876 20.8032 18.8875 20.8023V20.8079C18.8876 20.807 18.8876 20.806 18.8877 20.8051ZM23.5796 12.0384C25.0772 12.3046 26.5078 12.7642 27.7394 13.3454L27.7401 13.3433C27.7474 13.3465 27.7541 13.3515 27.7595 13.3577L27.7303 13.3139C29.7637 16.1807 30.9596 19.6839 30.9596 23.4665C30.9596 24.1098 30.9254 24.7455 30.8646 25.2932C30.8625 25.3127 30.8527 25.3302 30.8374 25.3414L30.8828 25.3085C29.3404 26.4611 27.5996 27.3622 25.5983 27.9853C25.5921 27.9867 25.5851 27.9881 25.5781 27.9881C25.5564 27.9881 25.5362 27.9769 25.5243 27.9602L25.5522 28C25.1597 27.46 24.8048 26.8914 24.4548 26.2208C24.4499 26.2117 24.4472 26.2013 24.4472 26.1901C24.4472 26.1621 24.4653 26.1377 24.4905 26.1279L24.5638 26.1028C25.1247 25.8869 25.6633 25.6257 26.125 25.3497C26.1439 25.3379 26.1572 25.3169 26.1572 25.2925C26.1572 25.2708 26.1467 25.2513 26.1306 25.2387C26.0196 25.157 25.9099 25.0703 25.8051 24.9837C25.7939 24.9746 25.7793 24.969 25.7639 24.969C25.7609 24.969 25.758 24.9692 25.7552 24.9696C24.1529 25.7263 22.3611 26.1496 20.4718 26.1496C18.5606 26.1496 16.75 25.7165 15.2076 24.9753H15.2083C15.2006 24.9718 15.1915 24.9697 15.1818 24.9697C15.1664 24.9697 15.1517 24.9753 15.1405 24.9844C15.0358 25.071 14.9254 25.1563 14.8157 25.2387C14.7997 25.2506 14.7892 25.2701 14.7892 25.2918C14.7892 25.3162 14.8024 25.3379 14.8227 25.3497L14.7689 25.3204C15.2816 25.6208 15.8202 25.8827 16.4573 26.1286H16.458C16.4831 26.1384 16.5013 26.1621 16.5013 26.1908C16.5013 26.202 16.4985 26.2124 16.4943 26.2208L16.4615 26.2907C16.1534 26.8886 15.7979 27.4586 15.4241 27.9616C15.4123 27.9776 15.3927 27.9881 15.3704 27.9881C15.3634 27.9881 15.3564 27.9874 15.3508 27.9853L15.2279 27.9518C13.3523 27.3601 11.6143 26.459 10.1194 25.3407C10.1048 25.3288 10.0943 25.312 10.0922 25.2918L10.0985 25.3686C10.0335 24.7525 10 24.1273 10 23.4937C10 19.7028 11.1931 16.1905 13.1867 13.3677C13.1928 13.3576 13.2022 13.3494 13.2135 13.3445L13.1092 13.3887C14.4462 12.7621 15.8768 12.3032 17.4785 12.0217C17.482 12.021 17.4862 12.021 17.4897 12.021C17.5142 12.021 17.5358 12.0335 17.5477 12.0538L17.5191 12C17.7179 12.346 17.8979 12.7031 18.0862 13.1424C18.8675 13.0249 19.6674 12.964 20.4816 12.964C21.3268 12.964 22.1566 13.0296 22.8761 13.1449L22.9062 13.0674C23.0661 12.6999 23.2436 12.3416 23.407 12.0545C23.4182 12.0349 23.4392 12.0217 23.4636 12.0217C23.4678 12.0217 23.472 12.0224 23.4755 12.0231L23.5796 12.0384ZM25.736 24.9753C25.738 24.9743 25.7401 24.9734 25.7422 24.9727L25.736 24.9753Z" fill="#FDFEFE"/>
</svg>
