<svg width="86" height="86" viewBox="0 0 86 86" fill="none" xmlns="http://www.w3.org/2000/svg">
<circle cx="43" cy="43" r="39" fill="#D9D9D9" stroke="#447876" stroke-width="2"/>
<circle cx="43" cy="43" r="41.5" fill="#E89FA2" stroke="#D64B49" stroke-width="3"/>
<path d="M43 3C37.7471 3 32.5457 4.03463 27.6927 6.04482C22.8396 8.05501 18.4301 11.0014 14.7157 14.7157C11.0014 18.4301 8.05501 22.8396 6.04482 27.6927C4.03463 32.5457 3 37.7471 3 43C3 48.2529 4.03463 53.4543 6.04482 58.3073C8.05501 63.1604 11.0014 67.5699 14.7157 71.2843C18.4301 74.9986 22.8396 77.945 27.6927 79.9552C32.5457 81.9654 37.7471 83 43 83L43 43V3Z" fill="#FABEC0"/>
<ellipse cx="42.9434" cy="43" rx="30.9434" ry="40" fill="#EE8583"/>
<path fill-rule="evenodd" clip-rule="evenodd" d="M52.9925 31.0002C52.9933 31.0005 52.994 31.0008 52.9954 31.0023L54.998 33.0048C54.9994 33.0063 54.9998 33.0069 55 33.0078C55.0003 33.0085 55.0003 33.0094 55 33.0102C54.9998 33.011 54.9994 33.0116 54.998 33.013L45.011 43L54.998 52.987C54.9994 52.9884 54.9998 52.9891 55 52.9899C55.0003 52.9906 55.0003 52.9915 55 52.9923C54.9998 52.993 54.9994 52.9937 54.998 52.9952L52.9954 54.9977C52.994 54.9992 52.9933 54.9995 52.9925 54.9998C52.9917 55.0001 52.9909 55.0001 52.9901 54.9998C52.9893 54.9995 52.9886 54.9992 52.9872 54.9977L43.0002 45.0108L33.0133 54.9977C33.0119 54.9992 33.0112 54.9995 33.0104 54.9998C33.0096 55 33.0088 55 33.008 54.9998C33.0072 54.9995 33.0065 54.9992 33.0051 54.9977L31.0025 52.9952C31.0011 52.9937 31.0007 52.9931 31.0005 52.9922C31.0002 52.9915 31.0002 52.9906 31.0005 52.9899C31.0007 52.9891 31.0011 52.9884 31.0025 52.987L40.9894 43L31.0025 33.013C31.0011 33.0116 31.0007 33.011 31.0005 33.0102C31.0002 33.0094 31.0002 33.0085 31.0005 33.0077C31.0007 33.007 31.0011 33.0063 31.0025 33.0048L33.0051 31.0023C33.0065 31.0008 33.0072 31.0005 33.008 31.0002C33.0088 30.9999 33.0096 30.9999 33.0104 31.0002C33.0112 31.0005 33.0119 31.0008 33.0133 31.0023L43.0002 40.9892L52.9872 31.0023C52.9886 31.0008 52.9893 31.0005 52.9901 31.0002C52.9909 31 52.9917 31 52.9925 31.0002H52.9925Z" fill="#D64B49"/>
</svg>
