<svg width="160" height="40" viewBox="0 0 160 40" fill="none" xmlns="http://www.w3.org/2000/svg">
<path d="M31.6353 12.8304H33.7577L38.4833 21.4808L43.0889 12.8304H45.2113V26.8472H42.9089V17.176L39.6049 23.3032C39.4177 23.6232 39.2377 23.8536 39.0641 23.9944C38.8905 24.1344 38.6969 24.2048 38.4833 24.2048H37.8225L33.9177 17.176V26.8472H31.6353V12.8304Z" fill="white"/>
<path d="M48.4649 26.2368C47.8441 25.7232 47.5337 25.0392 47.5337 24.184V23.4632C47.5337 22.6224 47.8569 21.948 48.5049 21.4408C49.1521 20.9336 50.0033 20.68 51.0577 20.68H52.2993C52.6729 20.68 53.0737 20.7336 53.5009 20.84C53.9281 20.9472 54.3081 21.0872 54.6425 21.2608V20.0192C54.6425 19.6056 54.5089 19.272 54.2417 19.0184C53.9745 18.7648 53.6273 18.6376 53.2001 18.6376H51.5185C51.0777 18.6376 50.7241 18.7408 50.4569 18.948C50.1897 19.1552 50.0561 19.4256 50.0561 19.7592H47.8137C47.8137 18.8384 48.1545 18.0968 48.8353 17.5368C49.5161 16.976 50.4105 16.696 51.5185 16.696H53.2001C54.3217 16.696 55.2225 17 55.9033 17.6072C56.5841 18.2144 56.9249 19.0192 56.9249 20.02V26.848H54.7825V25.5864C54.4625 26.0136 54.0617 26.3576 53.5809 26.6176C53.1001 26.8776 52.6265 27.008 52.1593 27.008H50.9177C49.9033 27.008 49.0857 26.7512 48.4649 26.2368ZM52.2993 25.2056C52.8329 25.2056 53.3137 25.0552 53.7409 24.7552C54.1681 24.4552 54.4681 24.0576 54.6417 23.564V23.0832C54.4145 22.8968 54.0945 22.7464 53.6809 22.6328C53.2673 22.5192 52.8329 22.4624 52.3793 22.4624H51.1177C50.7169 22.4624 50.3937 22.5624 50.1465 22.7624C49.8993 22.9624 49.7761 23.2232 49.7761 23.5432V24.104C49.7761 24.4376 49.9025 24.7048 50.1569 24.9048C50.4105 25.1048 50.7441 25.2048 51.1577 25.2048H52.2993V25.2056Z" fill="white"/>
<path d="M60.5297 30.0712C59.8617 29.5104 59.4953 28.7696 59.4281 27.8488H61.6905C61.7305 28.1824 61.8737 28.4496 62.1209 28.6496C62.3681 28.8496 62.6713 28.9496 63.0321 28.9496H64.7945C65.3017 28.9496 65.7057 28.7592 66.0057 28.3792C66.3057 27.9984 66.4561 27.488 66.4561 26.8472V25.7056C66.1761 26.0256 65.8321 26.2864 65.4249 26.4864C65.0177 26.6864 64.6209 26.7864 64.2337 26.7864H62.8321C61.6841 26.7864 60.7529 26.4296 60.0385 25.7152C59.3241 25.0016 58.9673 24.0632 58.9673 22.9016V20.7592C58.9673 19.9584 59.1337 19.2512 59.4681 18.6368C59.8017 18.0232 60.2721 17.5456 60.8801 17.2048C61.4873 16.864 62.1849 16.6944 62.9729 16.6944H64.2145C64.6681 16.6944 65.1153 16.8048 65.5561 17.0248C65.9969 17.2448 66.3433 17.5352 66.5977 17.896V16.8544H68.7601V26.8464C68.7601 28.088 68.4025 29.076 67.6889 29.8096C66.9745 30.544 66.0097 30.9112 64.7953 30.9112H63.0329C62.0313 30.9112 61.1969 30.6312 60.5297 30.0704V30.0712ZM64.3545 24.8248C64.9281 24.8248 65.4089 24.5976 65.7961 24.144C66.1833 23.6904 66.4033 23.1024 66.4569 22.3816V20.6392C66.4033 20.0656 66.1969 19.5952 65.8361 19.2272C65.4753 18.86 65.0417 18.6768 64.5345 18.6768H63.1529C62.5921 18.6768 62.1385 18.8808 61.7913 19.2872C61.4441 19.6944 61.2705 20.232 61.2705 20.8992V22.7616C61.2705 23.376 61.4273 23.8728 61.7409 24.2536C62.0545 24.6344 62.4649 24.824 62.9721 24.824H64.3537L64.3545 24.8248Z" fill="white"/>
<path d="M71.3225 16.8552H73.4649V18.1568C73.7585 17.716 74.1457 17.3624 74.6265 17.0952C75.1073 16.828 75.5873 16.6944 76.0681 16.6944H77.3097C78.3377 16.6944 79.1617 17.0216 79.7825 17.6752C80.4033 18.3296 80.7137 19.1904 80.7137 20.2584V26.8464H78.4113V20.3184C78.4113 19.8376 78.2881 19.4472 78.0409 19.1472C77.7937 18.8472 77.4705 18.6968 77.0697 18.6968H75.8281C75.3073 18.6968 74.8401 18.8936 74.4265 19.2872C74.0129 19.6808 73.7457 20.1848 73.6257 20.7992V26.8464H71.3233V16.8544L71.3225 16.8552Z" fill="white"/>
<path d="M83.5168 16.8552H85.8192V26.8472H83.5168V16.8552Z" fill="white"/>
<path d="M89.6832 18.8376H87.9608V16.8552H89.6832V16.1544C89.6832 15.0728 90.0064 14.2352 90.6544 13.6416C91.3016 13.048 92.2128 12.7504 93.388 12.7504H94.6096V14.7128H93.428C92.9336 14.7128 92.5704 14.8296 92.3368 15.0632C92.1032 15.2968 91.9864 15.6672 91.9864 16.1744V16.8552H94.3896V18.8376H91.9864V26.8472H89.684V18.8376H89.6832Z" fill="white"/>
<path d="M97.3424 30.0712C96.6816 29.5104 96.3176 28.7696 96.2512 27.8488H98.5136C98.5536 28.1824 98.6936 28.4496 98.9344 28.6496C99.1744 28.8496 99.4816 28.9496 99.8552 28.9496H101.477C101.984 28.9496 102.388 28.7592 102.688 28.3792C102.988 27.9984 103.138 27.488 103.138 26.8472V25.3656C102.818 25.8064 102.447 26.1536 102.027 26.4072C101.606 26.6608 101.182 26.788 100.756 26.788H99.4544C98.44 26.788 97.6224 26.4512 97.0016 25.7768C96.3808 25.1032 96.0704 24.212 96.0704 23.104V16.8568H98.3728V23.144C98.3728 23.6512 98.496 24.0584 98.7432 24.3656C98.9904 24.6728 99.3208 24.8264 99.7344 24.8264H100.916C101.41 24.8264 101.867 24.62 102.288 24.2056C102.709 23.792 102.992 23.2648 103.139 22.624V16.8568H105.422V26.8488C105.422 28.0904 105.064 29.0784 104.35 29.812C103.636 30.5464 102.678 30.9136 101.477 30.9136H99.8552C98.8408 30.9136 98.0032 30.6336 97.3424 30.0728V30.0712Z" fill="white"/>
<path d="M114.173 26.3568C113.425 25.9232 112.844 25.3088 112.43 24.5144C112.017 23.72 111.81 22.8024 111.81 21.7608V17.916C111.81 16.8744 112.02 15.9568 112.44 15.1624C112.861 14.368 113.451 13.7544 114.212 13.32C114.973 12.8864 115.854 12.6696 116.855 12.6696H118.978C119.926 12.6696 120.766 12.8736 121.501 13.28C122.235 13.6872 122.802 14.2608 123.203 15.0024C123.604 15.7432 123.804 16.6008 123.804 17.5752H121.502C121.502 16.7208 121.268 16.0336 120.801 15.5128C120.334 14.992 119.726 14.732 118.978 14.732H116.856C116.042 14.732 115.387 15.032 114.894 15.6328C114.399 16.2336 114.153 17.0216 114.153 17.996V21.68C114.153 22.668 114.393 23.4592 114.874 24.0528C115.354 24.6472 115.988 24.944 116.776 24.944H118.938C119.713 24.944 120.34 24.6504 120.821 24.0632C121.302 23.476 121.542 22.7152 121.542 21.7808H123.844C123.844 22.8224 123.64 23.7368 123.234 24.524C122.826 25.312 122.253 25.9224 121.511 26.356C120.77 26.7896 119.912 27.0064 118.938 27.0064H116.776C115.788 27.0064 114.92 26.7896 114.173 26.356V26.3568Z" fill="white"/>
<path d="M126.337 26.2368C125.716 25.7232 125.406 25.0392 125.406 24.184V23.4632C125.406 22.6224 125.729 21.948 126.377 21.4408C127.024 20.9336 127.875 20.68 128.93 20.68H130.171C130.545 20.68 130.946 20.7336 131.373 20.84C131.8 20.9472 132.18 21.0872 132.514 21.2608V20.0192C132.514 19.6056 132.381 19.272 132.114 19.0184C131.846 18.7648 131.499 18.6376 131.072 18.6376H129.39C128.95 18.6376 128.596 18.7408 128.329 18.948C128.062 19.1552 127.928 19.4256 127.928 19.7592H125.686C125.686 18.8384 126.026 18.0968 126.707 17.5368C127.388 16.976 128.282 16.696 129.39 16.696H131.072C132.194 16.696 133.094 17 133.775 17.6072C134.456 18.2144 134.797 19.0192 134.797 20.02V26.848H132.654V25.5864C132.334 26.0136 131.934 26.3576 131.453 26.6176C130.972 26.8776 130.498 27.008 130.031 27.008H128.79C127.775 27.008 126.958 26.7512 126.337 26.2368ZM130.171 25.2056C130.705 25.2056 131.186 25.0552 131.613 24.7552C132.04 24.4552 132.34 24.0576 132.514 23.564V23.0832C132.286 22.8968 131.966 22.7464 131.553 22.6328C131.139 22.5192 130.705 22.4624 130.251 22.4624H128.99C128.589 22.4624 128.266 22.5624 128.018 22.7624C127.771 22.9624 127.648 23.2232 127.648 23.5432V24.104C127.648 24.4376 127.774 24.7048 128.029 24.9048C128.282 25.1048 128.616 25.2048 129.03 25.2048H130.171V25.2056Z" fill="white"/>
<path d="M137.781 26.0864C137.086 25.4728 136.739 24.6584 136.739 23.6432H139.002C139.002 24.0704 139.142 24.4144 139.422 24.6744C139.702 24.9344 140.076 25.0648 140.544 25.0648H142.326C142.78 25.0648 143.138 24.988 143.398 24.8344C143.658 24.6808 143.788 24.4712 143.788 24.204V23.7632C143.788 23.5768 143.711 23.416 143.558 23.2824C143.404 23.1488 143.194 23.0552 142.927 23.0024L139.463 22.4016C138.689 22.268 138.074 21.9848 137.621 21.5504C137.166 21.1168 136.94 20.6128 136.94 20.0384V19.3776C136.94 18.5504 137.27 17.896 137.931 17.4152C138.592 16.9344 139.503 16.6944 140.665 16.6944H142.266C143.321 16.6944 144.175 16.9816 144.83 17.5552C145.483 18.1296 145.81 18.884 145.81 19.8176H143.548C143.548 19.4568 143.431 19.1704 143.198 18.9568C142.964 18.7432 142.654 18.6368 142.266 18.6368H140.685C140.218 18.6368 139.857 18.7104 139.603 18.8568C139.35 19.004 139.222 19.2104 139.222 19.4776V19.8784C139.222 20.0656 139.299 20.2256 139.453 20.3592C139.606 20.4928 139.81 20.5792 140.063 20.6192L143.647 21.26C144.381 21.4072 144.969 21.6872 145.41 22.1008C145.85 22.5144 146.07 23.0016 146.07 23.5624V24.3032C146.07 25.1312 145.73 25.7888 145.049 26.2752C144.368 26.7624 143.46 27.0064 142.326 27.0064H140.543C139.395 27.0064 138.474 26.6992 137.78 26.0856L137.781 26.0864Z" fill="white"/>
<path d="M148.032 12.8304H150.335V17.9768C150.642 17.5896 151.018 17.2792 151.466 17.0456C151.913 16.812 152.35 16.6952 152.777 16.6952H154.059C155.087 16.6952 155.911 17.0224 156.531 17.676C157.152 18.3304 157.463 19.1912 157.463 20.2592V26.8472H155.16V20.3192C155.16 19.8384 155.037 19.448 154.79 19.148C154.543 18.848 154.219 18.6976 153.819 18.6976H152.537C152.016 18.6976 151.549 18.8912 151.135 19.2784C150.722 19.6656 150.455 20.1728 150.335 20.8V26.8472H148.032V12.8304Z" fill="white"/>
<path d="M84.3469 12.9128L83.3083 13.9513C83.1312 14.1285 83.1312 14.4157 83.3083 14.5928L84.3469 15.6314C84.524 15.8086 84.8112 15.8086 84.9884 15.6314L86.027 14.5928C86.2041 14.4157 86.2041 14.1285 86.027 13.9514L84.9884 12.9128C84.8112 12.7356 84.524 12.7356 84.3469 12.9128Z" fill="white"/>
<g clip-path="url(#clip0_62_1188)">
<path d="M21.8572 9.0686H4.77601C3.59633 9.0686 2.64001 10.0249 2.64001 11.2046V28.2858C2.64001 29.4654 3.59633 30.4218 4.77601 30.4218H21.8572C23.0369 30.4218 23.9932 29.4654 23.9932 28.2858V11.2046C23.9932 10.0249 23.0369 9.0686 21.8572 9.0686Z" fill="url(#paint0_linear_62_1188)"/>
<path d="M12.5638 16.5125L10.1127 18.9636C9.69497 19.3813 9.69497 20.0586 10.1127 20.4764L12.5638 22.9274C12.9815 23.3452 13.6588 23.3452 14.0766 22.9274L16.5276 20.4764C16.9454 20.0586 16.9454 19.3813 16.5276 18.9636L14.0766 16.5125C13.6588 16.0948 12.9815 16.0948 12.5638 16.5125Z" fill="white"/>
</g>
<defs>
<linearGradient id="paint0_linear_62_1188" x1="2.64001" y1="19.7452" x2="23.9932" y2="19.7452" gradientUnits="userSpaceOnUse">
<stop stop-color="#2DFFF7"/>
<stop offset="0.06" stop-color="#35FEF7"/>
<stop offset="0.15" stop-color="#4EFBF8"/>
<stop offset="0.27" stop-color="#76F7FA"/>
<stop offset="0.4" stop-color="#ACF1FC"/>
<stop offset="0.5" stop-color="#D8EDFF"/>
<stop offset="0.52" stop-color="#DAE5F6"/>
<stop offset="0.68" stop-color="#EAB6BF"/>
<stop offset="0.82" stop-color="#F59398"/>
<stop offset="0.93" stop-color="#FC7E7F"/>
<stop offset="1" stop-color="#FF7777"/>
</linearGradient>
<clipPath id="clip0_62_1188">
<rect width="21.36" height="21.36" fill="white" transform="translate(2.64001 9.03998)"/>
</clipPath>
</defs>
</svg>
