<svg width="366" height="80" viewBox="0 0 366 80" fill="none" xmlns="http://www.w3.org/2000/svg">
<g clip-path="url(#clip0_465_8)">
<path d="M360.482 25.0737H316.5C313.462 25.0737 311 27.5361 311 30.5737V74.5561C311 77.5937 313.462 80.0561 316.5 80.0561H360.482C363.52 80.0561 365.982 77.5937 365.982 74.5561V30.5737C365.982 27.5361 363.52 25.0737 360.482 25.0737Z" fill="url(#paint0_linear_465_8)"/>
<path d="M336.553 44.2411L330.241 50.5523C329.166 51.628 329.166 53.372 330.241 54.4477L336.553 60.7589C337.628 61.8345 339.372 61.8345 340.448 60.7589L346.759 54.4477C347.835 53.372 347.835 51.628 346.759 50.5524L340.448 44.2411C339.372 43.1655 337.628 43.1655 336.553 44.2411Z" fill="white"/>
</g>
<path d="M2.48 7H7.4L16.56 23.64L25.52 7H30.44V35H25.04V17.28L19.16 27.92C18.76 28.64 18.3467 29.16 17.92 29.48C17.52 29.7733 17.0533 29.92 16.52 29.92H15L7.88 17.28V35H2.48V7ZM41.5697 35.32C39.4897 35.32 37.8097 34.8 36.5297 33.76C35.2497 32.72 34.6097 31.3467 34.6097 29.64V28.16C34.6097 26.48 35.2764 25.1333 36.6097 24.12C37.943 23.08 39.703 22.56 41.8897 22.56H44.3297C45.023 22.56 45.7697 22.6533 46.5697 22.84C47.3697 23.0267 48.103 23.28 48.7697 23.6V21.52C48.7697 20.8533 48.543 20.32 48.0897 19.92C47.663 19.4933 47.0897 19.28 46.3697 19.28H42.9297C42.183 19.28 41.583 19.4533 41.1297 19.8C40.6764 20.1467 40.4497 20.6133 40.4497 21.2H35.1697C35.1697 19.2533 35.8764 17.6933 37.2897 16.52C38.7297 15.32 40.6097 14.72 42.9297 14.72H46.3697C48.7164 14.72 50.6097 15.3467 52.0497 16.6C53.4897 17.8267 54.2097 19.4667 54.2097 21.52V35H49.1697V32.6C48.5297 33.4267 47.743 34.0933 46.8097 34.6C45.8764 35.08 44.9564 35.32 44.0497 35.32H41.5697ZM44.4497 31.16C45.4364 31.16 46.3164 30.9067 47.0897 30.4C47.863 29.8933 48.423 29.2133 48.7697 28.36V27.68C48.343 27.36 47.743 27.1067 46.9697 26.92C46.223 26.7333 45.423 26.64 44.5697 26.64H42.0497C41.4097 26.64 40.8897 26.8 40.4897 27.12C40.0897 27.44 39.8897 27.8667 39.8897 28.4V29.44C39.8897 29.9467 40.103 30.36 40.5297 30.68C40.983 31 41.5697 31.16 42.2897 31.16H44.4497ZM66.3691 43.12C64.2357 43.12 62.4624 42.5067 61.0491 41.28C59.6357 40.08 58.8491 38.4933 58.6891 36.52H64.0491C64.1024 37.1067 64.3424 37.5733 64.7691 37.92C65.1957 38.2933 65.7291 38.48 66.3691 38.48H69.9691C70.7957 38.48 71.4624 38.1333 71.9691 37.44C72.5024 36.7733 72.7691 35.8933 72.7691 34.8V32.92C72.2357 33.5067 71.5824 33.9733 70.8091 34.32C70.0624 34.6667 69.3424 34.84 68.6491 34.84H65.8891C63.4624 34.84 61.5024 34.12 60.0091 32.68C58.5424 31.24 57.8091 29.3467 57.8091 27V22.92C57.8091 21.2933 58.1557 19.8667 58.8491 18.64C59.5424 17.3867 60.5157 16.4267 61.7691 15.76C63.0224 15.0667 64.4624 14.72 66.0891 14.72H68.4091C69.3157 14.72 70.1957 14.9333 71.0491 15.36C71.9291 15.7867 72.6357 16.3467 73.1691 17.04V15.04H78.2091V34.8C78.2091 36.4533 77.8624 37.9067 77.1691 39.16C76.5024 40.4133 75.5424 41.3867 74.2891 42.08C73.0357 42.7733 71.5957 43.12 69.9691 43.12H66.3691ZM69.0091 30.24C70.0224 30.24 70.8757 29.8267 71.5691 29C72.2624 28.1467 72.6624 27.04 72.7691 25.68V22.92C72.6624 21.8533 72.3024 21 71.6891 20.36C71.0757 19.72 70.3024 19.4 69.3691 19.4H66.5691C65.5824 19.4 64.7824 19.76 64.1691 20.48C63.5557 21.2 63.2491 22.1467 63.2491 23.32V26.6C63.2491 27.6933 63.5291 28.5733 64.0891 29.24C64.6491 29.9067 65.3691 30.24 66.2491 30.24H69.0091ZM82.8669 15.04H87.9069V17.44C88.4935 16.6133 89.2535 15.96 90.1869 15.48C91.1202 14.9733 92.0535 14.72 92.9869 14.72H95.3869C97.5202 14.72 99.2269 15.3867 100.507 16.72C101.814 18.0533 102.467 19.8133 102.467 22V35H97.0269V22.2C97.0269 21.3733 96.8002 20.7067 96.3469 20.2C95.9202 19.6933 95.3602 19.44 94.6669 19.44H92.2669C91.3335 19.44 90.4935 19.7867 89.7469 20.48C89.0269 21.1467 88.5469 22.0267 88.3069 23.12V35H82.8669V15.04ZM110.291 13.16C109.251 13.16 108.411 12.8667 107.771 12.28C107.158 11.6667 106.851 10.8667 106.851 9.88C106.851 8.89334 107.158 8.10667 107.771 7.52C108.411 6.90667 109.251 6.6 110.291 6.6C111.331 6.6 112.158 6.90667 112.771 7.52C113.411 8.10667 113.731 8.89334 113.731 9.88C113.731 10.8667 113.411 11.6667 112.771 12.28C112.158 12.8667 111.331 13.16 110.291 13.16ZM107.571 15.04H113.011V35H107.571V15.04ZM120.215 19.68H116.775V15.04H120.215V13.72C120.215 11.56 120.895 9.88 122.255 8.68C123.641 7.45333 125.561 6.84 128.015 6.84H130.895V11.48H128.095C127.241 11.48 126.615 11.6667 126.215 12.04C125.841 12.4133 125.655 13 125.655 13.8V15.04H130.455V19.68H125.655V35H120.215V19.68ZM141.291 43.12C139.131 43.12 137.344 42.5067 135.931 41.28C134.544 40.08 133.771 38.4933 133.611 36.52H138.971C139.024 37.1067 139.264 37.5733 139.691 37.92C140.118 38.2933 140.651 38.48 141.291 38.48H144.571C145.398 38.48 146.064 38.1333 146.571 37.44C147.104 36.7733 147.371 35.8933 147.371 34.8V32.2C146.758 33.0267 146.051 33.68 145.251 34.16C144.478 34.6133 143.704 34.84 142.931 34.84H140.291C138.184 34.84 136.491 34.1467 135.211 32.76C133.931 31.3467 133.291 29.48 133.291 27.16V15.04H138.731V27.24C138.731 28.12 138.944 28.84 139.371 29.4C139.824 29.9333 140.411 30.2 141.131 30.2H143.451C144.331 30.2 145.131 29.84 145.851 29.12C146.571 28.3733 147.078 27.4 147.371 26.2V15.04H152.811V34.8C152.811 36.4533 152.464 37.9067 151.771 39.16C151.104 40.4133 150.144 41.3867 148.891 42.08C147.638 42.7733 146.198 43.12 144.571 43.12H141.291ZM176.721 43.12C174.561 43.12 172.774 42.5067 171.361 41.28C169.974 40.08 169.201 38.4933 169.041 36.52H174.401C174.454 37.1067 174.694 37.5733 175.121 37.92C175.547 38.2933 176.081 38.48 176.721 38.48H180.001C180.827 38.48 181.494 38.1333 182.001 37.44C182.534 36.7733 182.801 35.8933 182.801 34.8V32.2C182.187 33.0267 181.481 33.68 180.681 34.16C179.907 34.6133 179.134 34.84 178.361 34.84H175.721C173.614 34.84 171.921 34.1467 170.641 32.76C169.361 31.3467 168.721 29.48 168.721 27.16V15.04H174.161V27.24C174.161 28.12 174.374 28.84 174.801 29.4C175.254 29.9333 175.841 30.2 176.561 30.2H178.881C179.761 30.2 180.561 29.84 181.281 29.12C182.001 28.3733 182.507 27.4 182.801 26.2V15.04H188.241V34.8C188.241 36.4533 187.894 37.9067 187.201 39.16C186.534 40.4133 185.574 41.3867 184.321 42.08C183.067 42.7733 181.627 43.12 180.001 43.12H176.721ZM200.587 35.32C198.907 35.32 197.414 35 196.107 34.36C194.827 33.6933 193.827 32.76 193.107 31.56C192.414 30.36 192.067 28.9733 192.067 27.4V22.72C192.067 21.1467 192.427 19.76 193.147 18.56C193.867 17.3333 194.867 16.3867 196.147 15.72C197.454 15.0533 198.947 14.72 200.627 14.72H204.227C205.907 14.72 207.387 15.0533 208.667 15.72C209.974 16.3867 210.987 17.3333 211.707 18.56C212.427 19.76 212.787 21.1467 212.787 22.72V27.4C212.787 28.9733 212.427 30.36 211.707 31.56C210.987 32.76 209.974 33.6933 208.667 34.36C207.387 35 205.894 35.32 204.187 35.32H200.587ZM204.107 30.64C205.094 30.64 205.88 30.3067 206.467 29.64C207.054 28.9467 207.347 28.0533 207.347 26.96V23.08C207.347 21.9867 207.054 21.1067 206.467 20.44C205.88 19.7467 205.107 19.4 204.147 19.4H200.707C199.747 19.4 198.974 19.7467 198.387 20.44C197.8 21.1067 197.507 21.9867 197.507 23.08V26.96C197.507 28.0533 197.8 28.9467 198.387 29.64C198.974 30.3067 199.734 30.64 200.667 30.64H204.107ZM223.377 35.32C221.27 35.32 219.577 34.6133 218.297 33.2C217.017 31.76 216.377 29.88 216.377 27.56V15.04H221.817V27.64C221.817 28.52 222.03 29.24 222.457 29.8C222.91 30.3333 223.497 30.6 224.217 30.6H226.537C227.417 30.6 228.217 30.24 228.937 29.52C229.657 28.7733 230.164 27.8 230.457 26.6V15.04H235.897V35H230.857V32.44C230.244 33.2933 229.484 33.9867 228.577 34.52C227.697 35.0533 226.844 35.32 226.017 35.32H223.377ZM240.523 15.04H245.563V17.6C246.07 16.8267 246.79 16.2 247.723 15.72C248.683 15.2133 249.683 14.96 250.723 14.96H253.443V19.68H250.723C249.31 19.68 248.163 20.1067 247.283 20.96C246.403 21.8133 245.963 22.9067 245.963 24.24V35H240.523V15.04ZM8.64 75.32C6.56 75.32 4.88 74.8 3.6 73.76C2.32 72.72 1.68 71.3467 1.68 69.64V68.16C1.68 66.48 2.34667 65.1333 3.68 64.12C5.01333 63.08 6.77333 62.56 8.96 62.56H11.4C12.0933 62.56 12.84 62.6533 13.64 62.84C14.44 63.0267 15.1733 63.28 15.84 63.6V61.52C15.84 60.8533 15.6133 60.32 15.16 59.92C14.7333 59.4933 14.16 59.28 13.44 59.28H10C9.25333 59.28 8.65333 59.4533 8.2 59.8C7.74667 60.1467 7.52 60.6133 7.52 61.2H2.24C2.24 59.2533 2.94667 57.6933 4.36 56.52C5.8 55.32 7.68 54.72 10 54.72H13.44C15.7867 54.72 17.68 55.3467 19.12 56.6C20.56 57.8267 21.28 59.4667 21.28 61.52V75H16.24V72.6C15.6 73.4267 14.8133 74.0933 13.88 74.6C12.9467 75.08 12.0267 75.32 11.12 75.32H8.64ZM11.52 71.16C12.5067 71.16 13.3867 70.9067 14.16 70.4C14.9333 69.8933 15.4933 69.2133 15.84 68.36V67.68C15.4133 67.36 14.8133 67.1067 14.04 66.92C13.2933 66.7333 12.4933 66.64 11.64 66.64H9.12C8.48 66.64 7.96 66.8 7.56 67.12C7.16 67.44 6.96 67.8667 6.96 68.4V69.44C6.96 69.9467 7.17333 70.36 7.6 70.68C8.05333 71 8.64 71.16 9.36 71.16H11.52ZM32.7594 75.32C30.3327 75.32 28.386 74.68 26.9194 73.4C25.4527 72.12 24.7194 70.44 24.7194 68.36H30.0794C30.0794 69.08 30.3194 69.6667 30.7994 70.12C31.306 70.5467 31.9594 70.76 32.7594 70.76H36.3594C37.9594 70.76 38.7594 70.32 38.7594 69.44V68.76C38.7594 68.4933 38.626 68.2533 38.3594 68.04C38.0927 67.8 37.7327 67.64 37.2794 67.56L30.3594 66.36C28.7327 66.0933 27.4394 65.52 26.4794 64.64C25.546 63.7333 25.0794 62.68 25.0794 61.48V60.16C25.0794 58.4533 25.7727 57.12 27.1594 56.16C28.5727 55.2 30.5327 54.72 33.0394 54.72H36.1594C38.3994 54.72 40.1994 55.32 41.5594 56.52C42.946 57.6933 43.6394 59.2533 43.6394 61.2H38.2794C38.2794 60.6133 38.0794 60.1467 37.6794 59.8C37.306 59.4533 36.7994 59.28 36.1594 59.28H33.1194C31.386 59.28 30.5194 59.68 30.5194 60.48V61.12C30.5194 61.4133 30.626 61.6667 30.8394 61.88C31.0794 62.0667 31.4127 62.2 31.8394 62.28L39.1194 63.6C40.6394 63.8667 41.866 64.44 42.7994 65.32C43.7327 66.1733 44.1994 67.1467 44.1994 68.24V69.68C44.1994 71.4133 43.4794 72.7867 42.0394 73.8C40.626 74.8133 38.7327 75.32 36.3594 75.32H32.7594ZM54.7125 75.32C52.2858 75.32 50.3392 74.68 48.8725 73.4C47.4058 72.12 46.6725 70.44 46.6725 68.36H52.0325C52.0325 69.08 52.2725 69.6667 52.7525 70.12C53.2592 70.5467 53.9125 70.76 54.7125 70.76H58.3125C59.9125 70.76 60.7125 70.32 60.7125 69.44V68.76C60.7125 68.4933 60.5792 68.2533 60.3125 68.04C60.0458 67.8 59.6858 67.64 59.2325 67.56L52.3125 66.36C50.6858 66.0933 49.3925 65.52 48.4325 64.64C47.4992 63.7333 47.0325 62.68 47.0325 61.48V60.16C47.0325 58.4533 47.7258 57.12 49.1125 56.16C50.5258 55.2 52.4858 54.72 54.9925 54.72H58.1125C60.3525 54.72 62.1525 55.32 63.5125 56.52C64.8992 57.6933 65.5925 59.2533 65.5925 61.2H60.2325C60.2325 60.6133 60.0325 60.1467 59.6325 59.8C59.2592 59.4533 58.7525 59.28 58.1125 59.28H55.0725C53.3392 59.28 52.4725 59.68 52.4725 60.48V61.12C52.4725 61.4133 52.5792 61.6667 52.7925 61.88C53.0325 62.0667 53.3658 62.2 53.7925 62.28L61.0725 63.6C62.5925 63.8667 63.8192 64.44 64.7525 65.32C65.6858 66.1733 66.1525 67.1467 66.1525 68.24V69.68C66.1525 71.4133 65.4325 72.7867 63.9925 73.8C62.5792 74.8133 60.6858 75.32 58.3125 75.32H54.7125ZM77.3456 75.32C75.6656 75.32 74.1723 75.0133 72.8656 74.4C71.5856 73.76 70.5856 72.88 69.8656 71.76C69.1456 70.6133 68.7856 69.3067 68.7856 67.84V62.68C68.7856 61.1067 69.1456 59.72 69.8656 58.52C70.5856 57.32 71.5856 56.3867 72.8656 55.72C74.1723 55.0533 75.6656 54.72 77.3456 54.72H80.5456C83.1056 54.72 85.159 55.44 86.7056 56.88C88.2523 58.32 89.0256 60.24 89.0256 62.64V66.88H74.2256V67.84C74.2256 68.72 74.5056 69.4267 75.0656 69.96C75.6256 70.4933 76.3856 70.76 77.3456 70.76H80.4656C81.399 70.76 82.1456 70.56 82.7056 70.16C83.2923 69.7333 83.5856 69.1867 83.5856 68.52H88.9456C88.9456 69.8533 88.5856 71.04 87.8656 72.08C87.1456 73.12 86.1323 73.92 84.8256 74.48C83.5456 75.04 82.0656 75.32 80.3856 75.32H77.3456ZM83.6656 62.96V62.64C83.6656 61.6 83.3856 60.7733 82.8256 60.16C82.2656 59.52 81.519 59.2 80.5856 59.2H77.3456C76.3856 59.2 75.6123 59.5333 75.0256 60.2C74.439 60.8667 74.1456 61.7467 74.1456 62.84V62.96H83.6656ZM101.196 75C98.8496 75 97.1296 74.4667 96.0362 73.4C94.9429 72.3333 94.3963 70.68 94.3963 68.44V59.68H90.8763V55.04H94.5563V49H99.8363V55.04H105.036V59.68H99.8363V68.2C99.8363 68.9467 99.9696 69.4933 100.236 69.84C100.53 70.1867 100.983 70.36 101.596 70.36H105.036V75H101.196ZM115.728 75.32C113.301 75.32 111.355 74.68 109.888 73.4C108.421 72.12 107.688 70.44 107.688 68.36H113.048C113.048 69.08 113.288 69.6667 113.768 70.12C114.275 70.5467 114.928 70.76 115.728 70.76H119.328C120.928 70.76 121.728 70.32 121.728 69.44V68.76C121.728 68.4933 121.595 68.2533 121.328 68.04C121.061 67.8 120.701 67.64 120.248 67.56L113.328 66.36C111.701 66.0933 110.408 65.52 109.448 64.64C108.515 63.7333 108.048 62.68 108.048 61.48V60.16C108.048 58.4533 108.741 57.12 110.128 56.16C111.541 55.2 113.501 54.72 116.008 54.72H119.128C121.368 54.72 123.168 55.32 124.528 56.52C125.915 57.6933 126.608 59.2533 126.608 61.2H121.248C121.248 60.6133 121.048 60.1467 120.648 59.8C120.275 59.4533 119.768 59.28 119.128 59.28H116.088C114.355 59.28 113.488 59.68 113.488 60.48V61.12C113.488 61.4133 113.595 61.6667 113.808 61.88C114.048 62.0667 114.381 62.2 114.808 62.28L122.088 63.6C123.608 63.8667 124.835 64.44 125.768 65.32C126.701 66.1733 127.168 67.1467 127.168 68.24V69.68C127.168 71.4133 126.448 72.7867 125.008 73.8C123.595 74.8133 121.701 75.32 119.328 75.32H115.728Z" fill="url(#paint1_radial_465_8)"/>
<defs>
<linearGradient id="paint0_linear_465_8" x1="311" y1="52.5649" x2="365.982" y2="52.5649" gradientUnits="userSpaceOnUse">
<stop stop-color="#2DFFF7"/>
<stop offset="0.06" stop-color="#35FEF7"/>
<stop offset="0.15" stop-color="#4EFBF8"/>
<stop offset="0.27" stop-color="#76F7FA"/>
<stop offset="0.4" stop-color="#ACF1FC"/>
<stop offset="0.5" stop-color="#D8EDFF"/>
<stop offset="0.52" stop-color="#DAE5F6"/>
<stop offset="0.68" stop-color="#EAB6BF"/>
<stop offset="0.82" stop-color="#F59398"/>
<stop offset="0.93" stop-color="#FC7E7F"/>
<stop offset="1" stop-color="#FF7777"/>
</linearGradient>
<radialGradient id="paint1_radial_465_8" cx="0" cy="0" r="1" gradientUnits="userSpaceOnUse" gradientTransform="translate(156 45) rotate(-11.8081) scale(146.602 42.1176)">
<stop stop-color="#FF7777"/>
<stop offset="0.509098" stop-color="#DAEFFF"/>
<stop offset="1" stop-color="#2DFFF9"/>
</radialGradient>
<clipPath id="clip0_465_8">
<rect width="55" height="55" fill="white" transform="translate(311 25)"/>
</clipPath>
</defs>
</svg>
