<svg width="26" height="26" viewBox="0 0 26 26" fill="none" xmlns="http://www.w3.org/2000/svg">
<g clip-path="url(#clip0_47_543)">
<path d="M22.8319 3.0639L14.2655 9.26199L15.823 5.61981L22.8319 3.0639Z" fill="#E17726" stroke="#E17726" stroke-width="0.25" stroke-linecap="round" stroke-linejoin="round"/>
<path d="M3.16809 3.0639L11.6047 9.32588L10.112 5.61981L3.16809 3.0639Z" fill="#E27625" stroke="#E27625" stroke-width="0.25" stroke-linecap="round" stroke-linejoin="round"/>
<path d="M19.7818 17.5048L17.5104 20.8914L22.3776 22.2332L23.7405 17.5687L19.7818 17.5048Z" fill="#E27625" stroke="#E27625" stroke-width="0.25" stroke-linecap="round" stroke-linejoin="round"/>
<path d="M2.25952 17.5687L3.62235 22.2332L8.48961 20.8914L6.21822 17.5048L2.25952 17.5687Z" fill="#E27625" stroke="#E27625" stroke-width="0.25" stroke-linecap="round" stroke-linejoin="round"/>
<path d="M8.23014 11.6901L6.86731 13.6709L11.6697 13.8626L11.5399 8.75079L8.23014 11.6901Z" fill="#E27625" stroke="#E27625" stroke-width="0.25" stroke-linecap="round" stroke-linejoin="round"/>
<path d="M17.7699 11.6901L14.3953 8.75079L14.2655 13.9265L19.0679 13.7348L17.7699 11.6901Z" fill="#E27625" stroke="#E27625" stroke-width="0.25" stroke-linecap="round" stroke-linejoin="round"/>
<path d="M8.48962 20.8914L11.4093 19.4856L8.87891 17.5687L8.48962 20.8914Z" fill="#E27625" stroke="#E27625" stroke-width="0.25" stroke-linecap="round" stroke-linejoin="round"/>
<path d="M14.59 19.4856L17.5096 20.8914L17.1203 17.5687L14.59 19.4856Z" fill="#E27625" stroke="#E27625" stroke-width="0.25" stroke-linecap="round" stroke-linejoin="round"/>
<path d="M17.5096 20.8914L14.59 19.4856L14.8495 21.3387V22.1054L17.5096 20.8914Z" fill="#D5BFB2" stroke="#D5BFB2" stroke-width="0.25" stroke-linecap="round" stroke-linejoin="round"/>
<path d="M8.48962 20.8914L11.2146 22.1693V21.4026L11.4741 19.5495L8.48962 20.8914Z" fill="#D5BFB2" stroke="#D5BFB2" stroke-width="0.25" stroke-linecap="round" stroke-linejoin="round"/>
<path d="M11.2148 16.3546L8.81421 15.6518L10.5011 14.885L11.2148 16.3546Z" fill="#233447" stroke="#233447" stroke-width="0.25" stroke-linecap="round" stroke-linejoin="round"/>
<path d="M14.7197 16.3546L15.4334 14.885L17.1203 15.6518L14.7197 16.3546Z" fill="#233447" stroke="#233447" stroke-width="0.25" stroke-linecap="round" stroke-linejoin="round"/>
<path d="M8.48909 20.8914L8.87837 17.5048L6.21826 17.5687L8.48909 20.8914Z" fill="#CC6228" stroke="#CC6228" stroke-width="0.25" stroke-linecap="round" stroke-linejoin="round"/>
<path d="M17.056 17.5048L17.4453 20.8914L19.7161 17.5687L17.056 17.5048Z" fill="#CC6228" stroke="#CC6228" stroke-width="0.25" stroke-linecap="round" stroke-linejoin="round"/>
<path d="M19.1327 13.7348L14.3303 13.9265L14.7846 16.3546L15.4985 14.885L17.1858 15.6518L19.1327 13.7348Z" fill="#CC6228" stroke="#CC6228" stroke-width="0.25" stroke-linecap="round" stroke-linejoin="round"/>
<path d="M8.81421 15.6518L10.5015 14.885L11.2154 16.3546L11.6697 13.9265L6.86731 13.7348L8.81421 15.6518Z" fill="#CC6228" stroke="#CC6228" stroke-width="0.25" stroke-linecap="round" stroke-linejoin="round"/>
<path d="M6.86731 13.7348L8.87861 17.6326L8.81373 15.7157L6.86731 13.7348Z" fill="#E27525" stroke="#E27525" stroke-width="0.25" stroke-linecap="round" stroke-linejoin="round"/>
<path d="M17.1859 15.6518L17.121 17.5687L19.1323 13.6709L17.1859 15.6518Z" fill="#E27525" stroke="#E27525" stroke-width="0.25" stroke-linecap="round" stroke-linejoin="round"/>
<path d="M11.6695 13.9265L11.2153 16.3546L11.7993 19.23L11.929 15.4601L11.6695 13.9265Z" fill="#E27525" stroke="#E27525" stroke-width="0.25" stroke-linecap="round" stroke-linejoin="round"/>
<path d="M14.2654 13.9265L14.0059 15.4601L14.1356 19.23L14.7195 16.3546L14.2654 13.9265Z" fill="#E27525" stroke="#E27525" stroke-width="0.25" stroke-linecap="round" stroke-linejoin="round"/>
<path d="M14.7197 16.3546L14.1357 19.23L14.525 19.4856L17.0554 17.5687L17.1203 15.6518L14.7197 16.3546Z" fill="#F5841F" stroke="#F5841F" stroke-width="0.25" stroke-linecap="round" stroke-linejoin="round"/>
<path d="M8.81421 15.6518L8.87909 17.5687L11.4094 19.4856L11.7987 19.23L11.2148 16.3546L8.81421 15.6518Z" fill="#F5841F" stroke="#F5841F" stroke-width="0.25" stroke-linecap="round" stroke-linejoin="round"/>
<path d="M14.7846 22.1693V21.4026L14.5899 21.2109H11.3451L11.1504 21.4026V22.1693L8.48962 20.8914L9.46308 21.6582L11.3451 22.9361H14.6548L16.6017 21.6582L17.5103 20.8914L14.7846 22.1693Z" fill="#C0AC9D" stroke="#C0AC9D" stroke-width="0.25" stroke-linecap="round" stroke-linejoin="round"/>
<path d="M14.5899 19.4856L14.2005 19.23H11.7994L11.41 19.4856L11.1504 21.3387L11.3451 21.147H14.5899L14.7846 21.3387L14.5899 19.4856Z" fill="#161616" stroke="#161616" stroke-width="0.25" stroke-linecap="round" stroke-linejoin="round"/>
<path d="M23.1563 9.70927L23.8702 6.25879L22.767 3.0639L14.59 9.07029L17.7699 11.6901L22.2478 12.9681L23.2212 11.8179L22.767 11.5623L23.4808 10.9233L22.9617 10.5399L23.6755 10.0288L23.1563 9.70927Z" fill="#763E1A" stroke="#763E1A" stroke-width="0.25" stroke-linecap="round" stroke-linejoin="round"/>
<path d="M2.06494 6.25879L2.77881 9.70927L2.32453 10.0288L3.03839 10.5399L2.51922 10.9233L3.23308 11.5623L2.77881 11.8818L3.75226 13.032L8.23013 11.754L11.4101 9.13419L3.16819 3.0639L2.06494 6.25879Z" fill="#763E1A" stroke="#763E1A" stroke-width="0.25" stroke-linecap="round" stroke-linejoin="round"/>
<path d="M22.2478 12.968L17.7699 11.6901L19.1328 13.6709L17.121 17.5687L19.7817 17.5048H23.7404L22.2478 12.968Z" fill="#F5841F" stroke="#F5841F" stroke-width="0.25" stroke-linecap="round" stroke-linejoin="round"/>
<path d="M8.23002 11.6901L3.75215 12.968L2.25952 17.5048H6.21822L8.87899 17.5687L6.86719 13.6709L8.23002 11.6901Z" fill="#F5841F" stroke="#F5841F" stroke-width="0.25" stroke-linecap="round" stroke-linejoin="round"/>
<path d="M14.2655 13.9265L14.5251 9.07029L15.8231 5.61981H10.0472L11.3452 9.07029L11.6048 13.9265L11.7346 15.4601V19.23H14.1357V15.4601L14.2655 13.9265Z" fill="#F5841F" stroke="#F5841F" stroke-width="0.25" stroke-linecap="round" stroke-linejoin="round"/>
</g>
<defs>
<clipPath id="clip0_47_543">
<rect width="22" height="20" fill="white" transform="translate(2 3)"/>
</clipPath>
</defs>
</svg>
