<svg width="86" height="86" viewBox="0 0 86 86" fill="none" xmlns="http://www.w3.org/2000/svg">
<circle cx="43" cy="43" r="39" fill="#D9D9D9" stroke="#447876" stroke-width="2"/>
<circle cx="43" cy="43" r="41.5" fill="#5FCCC8" stroke="#447876" stroke-width="3"/>
<path d="M43 3C37.7471 3 32.5457 4.03463 27.6927 6.04482C22.8396 8.05501 18.4301 11.0014 14.7157 14.7157C11.0014 18.4301 8.05501 22.8396 6.04482 27.6927C4.03463 32.5457 3 37.7471 3 43C3 48.2529 4.03463 53.4543 6.04482 58.3073C8.05501 63.1604 11.0014 67.5699 14.7157 71.2843C18.4301 74.9986 22.8396 77.945 27.6927 79.9552C32.5457 81.9654 37.7471 83 43 83L43 43V3Z" fill="#DDEFFE"/>
<ellipse cx="42.9998" cy="43" rx="30.9434" ry="40" fill="#59BDBA"/>
<path d="M38 55.3567L26.8217 44.1783L29.1783 41.8217L38 50.6433L56.8217 31.8217L59.1783 34.1783L38 55.3567Z" fill="#447876"/>
</svg>
