<svg width="40" height="40" viewBox="0 0 40 40" fill="none" xmlns="http://www.w3.org/2000/svg">
<path fill-rule="evenodd" clip-rule="evenodd" d="M8 0C3.58172 0 0 3.58172 0 8V32C0 36.4183 3.58172 40 8 40H32C36.4183 40 40 36.4183 40 32V8C40 3.58172 36.4183 0 32 0H8ZM28.1912 13.1306C28.3392 11.4487 26.5631 12.1413 26.5631 12.1413C25.2517 12.6841 23.8992 13.2358 22.5321 13.7934C18.2931 15.5225 13.9137 17.3089 10.1832 19.067C8.16033 19.809 9.34442 20.5511 9.34442 20.5511L12.5514 21.5405C14.0314 21.9857 14.8208 21.491 14.8208 21.491L21.728 16.7914C24.1949 15.1094 23.6029 16.4946 23.0108 17.0882L17.8304 22.0351C17.041 22.7277 17.4357 23.3214 17.7811 23.6182C18.7599 24.4818 21.1677 26.0619 22.2188 26.7517C22.4924 26.9312 22.674 27.0504 22.7148 27.081C22.9615 27.2789 24.2936 28.1694 25.1817 27.9715C26.0697 27.7736 26.1684 26.6358 26.1684 26.6358L27.3525 18.8691C27.5301 17.5208 27.7338 16.2248 27.8965 15.1897C28.0502 14.212 28.1672 13.4671 28.1912 13.1306Z" fill="#FDFEFE"/>
</svg>
