<svg width="40" height="40" viewBox="0 0 40 40" fill="none" xmlns="http://www.w3.org/2000/svg">
<path fill-rule="evenodd" clip-rule="evenodd" d="M8 0C3.58172 0 0 3.58172 0 8V32C0 36.4183 3.58172 40 8 40H32C36.4183 40 40 36.4183 40 32V8C40 3.58172 36.4183 0 32 0H8ZM26.6377 17.0877C26.6377 21.5362 23.1976 26.6667 16.9084 26.6667V26.6642C15.05 26.6667 13.2309 26.1424 11.6667 25.1546C11.9375 25.1866 12.2092 25.2022 12.4808 25.203C14.0209 25.2047 15.5167 24.6959 16.7276 23.7589C15.265 23.7318 13.9809 22.7922 13.5334 21.4204C14.045 21.5181 14.5734 21.4984 15.0767 21.3631C13.4817 21.0455 12.3342 19.6658 12.3333 18.0634V18.0207C12.8092 18.2816 13.3417 18.4259 13.8859 18.4415C12.3833 17.4536 11.9192 15.4864 12.8267 13.948C14.5634 16.0508 17.1251 17.3291 19.8743 17.4653C19.5984 16.2961 19.9759 15.0704 20.8635 14.2483C22.241 12.9733 24.4068 13.039 25.7018 14.3944C26.4677 14.2459 27.2019 13.9691 27.8735 13.5769C27.6177 14.3572 27.0835 15.0184 26.3702 15.4393C27.0477 15.3605 27.7102 15.1819 28.3335 14.9095C27.8744 15.5856 27.2969 16.1764 26.6277 16.6523C26.6377 16.7967 26.6377 16.9416 26.6377 17.0877Z" fill="#FDFEFE"/>
</svg>
